<svg width="12" height="16" viewBox="0 0 12 16" fill="none" xmlns="http://www.w3.org/2000/svg">
<path id="Vector" d="M5.99984 2.13346C3.8769 2.13346 2.14977 3.84738 2.14977 5.95409C2.14977 6.13276 2.23606 7.15435 3.93967 9.72737C4.62591 10.7638 5.39687 11.7835 6.05371 12.6172C6.5054 12.0382 7.01059 11.3622 7.5059 10.645C9.78414 7.34614 9.84991 6.08683 9.84991 5.95409C9.84991 3.84738 8.12278 2.13346 5.99984 2.13346ZM5.99984 0.00012207C9.31346 0.00012207 11.9997 2.66581 11.9997 5.95409C11.9997 9.20605 6.1008 16.0001 6.00098 16.0001C5.99987 16.0001 5.99949 15.9993 5.99984 15.9976C6.03139 15.8435 0 9.24238 0 5.95409C0 2.66581 2.68622 0.00012207 5.99984 0.00012207Z" fill="#F88500"/>
</svg>
